HIERARCHY
ROOT Hips
{
 OFFSET 0.000000 0.000000 0.000000
 CHANNELS 6 Xposition Yposition Zposition Yrotation Xrotation Zrotation
 JOINT Chest
 {
  OFFSET 0.000000 10.080317 -0.001081
  CHANNELS 3 Yrotation Xrotation Zrotation
  JOINT Chest2
  {
   OFFSET 0.000000 11.096852 0.001963
   CHANNELS 3 Yrotation Xrotation Zrotation
   JOINT Chest3
   {
    OFFSET 0.000000 10.026525 0.000000
    CHANNELS 3 Yrotation Xrotation Zrotation
    JOINT Chest4
    {
     OFFSET 0.000000 10.026525 0.000000
     CHANNELS 3 Yrotation Xrotation Zrotation
     JOINT Neck
     {
      OFFSET 0.000000 14.108171 0.000000
      CHANNELS 3 Yrotation Xrotation Zrotation
      JOINT Head
      {
       OFFSET 0.000000 9.333493 0.004668
       CHANNELS 3 Yrotation Xrotation Zrotation
       End Site
       {
        OFFSET 0.000000 17.851786 0.002438
       }
      }
     }
     JOINT RightCollar
     {
      OFFSET -3.071622 7.873185 0.000000
      CHANNELS 3 Yrotation Xrotation Zrotation
      JOINT RightShoulder
      {
       OFFSET -14.378659 0.000000 0.000000
       CHANNELS 3 Yrotation Xrotation Zrotation
       JOINT RightElbow
       {
        OFFSET -30.778728 0.000000 0.000000
        CHANNELS 3 Yrotation Xrotation Zrotation
        JOINT RightWrist
        {
         OFFSET -25.164217 0.000000 0.000000
         CHANNELS 3 Yrotation Xrotation Zrotation
         End Site
         {
          OFFSET -18.796788 0.000000 0.000000
         }
        }
       }
      }
     }
     JOINT LeftCollar
     {
      OFFSET 3.071622 7.873185 0.000000
      CHANNELS 3 Yrotation Xrotation Zrotation
      JOINT LeftShoulder
      {
       OFFSET 14.378659 0.000000 0.000000
       CHANNELS 3 Yrotation Xrotation Zrotation
       JOINT LeftElbow
       {
        OFFSET 30.778728 0.000000 0.000000
        CHANNELS 3 Yrotation Xrotation Zrotation
        JOINT LeftWrist
        {
         OFFSET 25.164217 0.000000 0.000000
         CHANNELS 3 Yrotation Xrotation Zrotation
         End Site
         {
          OFFSET 18.796788 0.000000 0.000000
         }
        }
       }
      }
     }
    }
   }
  }
 }
 JOINT RightHip
 {
  OFFSET -8.194923 0.005295 0.000540
  CHANNELS 3 Yrotation Xrotation Zrotation
  JOINT RightKnee
  {
   OFFSET 0.000000 -42.473320 -0.000511
   CHANNELS 3 Yrotation Xrotation Zrotation
   JOINT RightAnkle
   {
    OFFSET 0.000000 -41.474259 -0.000865
    CHANNELS 3 Yrotation Xrotation Zrotation
    JOINT RightToe
    {
     OFFSET 0.000000 -7.354994 16.712725
     CHANNELS 3 Yrotation Xrotation Zrotation
     End Site
     {
      OFFSET 0.000000 -1.553903 6.764158
     }
    }
   }
  }
 }
 JOINT LeftHip
 {
  OFFSET 8.194923 0.005295 0.000540
  CHANNELS 3 Yrotation Xrotation Zrotation
  JOINT LeftKnee
  {
   OFFSET 0.000000 -42.473320 -0.000511
   CHANNELS 3 Yrotation Xrotation Zrotation
   JOINT LeftAnkle
   {
    OFFSET 0.000000 -41.474259 -0.000865
    CHANNELS 3 Yrotation Xrotation Zrotation
    JOINT LeftToe
    {
     OFFSET 0.000000 -7.354994 16.712725
     CHANNELS 3 Yrotation Xrotation Zrotation
     End Site
     {
      OFFSET 0.000000 -1.553903 6.764158
     }
    }
   }
  }
 }
}
MOTION
Frames: 13
Frame Time: 0.016667
-36.708691 98.838889 135.799291 90.886554 27.249866 -66.152168 -3.629670 4.142386 11.040730 -1.650759 1.732796 4.890274 -1.650759 1.732796 4.890274 -1.251939 1.286498 3.672139 -11.307483 22.095245 15.889201 -24.174996 9.470963 31.399557 -9.853153 -0.030579 5.884586 -19.085958 -2.441736 39.376131 68.816473 6.544409 33.941243 15.995081 -1.501059 -16.099788 -22.989152 -6.635332 -6.728259 -39.435306 -47.933507 -57.691805 -76.060568 -2.416224 -66.001703 -0.372262 11.115856 12.075533 -23.301868 -13.909350 -39.248342 -20.936007 -6.326903 3.998146 -3.316910 -5.354618 21.011212 -0.940861 -1.025464 0.198593 -10.063203 -59.466900 56.779282 -4.447408 11.594135 -0.503707 -6.220709 -1.859177 3.523851 -0.015627 0.451564 0.098273
-36.541162 98.839403 135.826313 91.074812 26.806194 -65.749045 -3.637141 4.130035 10.927446 -1.683632 1.773694 4.852092 -1.683632 1.773694 4.852092 -1.276805 1.317015 3.643698 -11.292177 22.068714 15.816328 -24.141469 9.394725 31.272902 -9.818434 -0.163193 5.982631 -19.339905 -2.385857 39.219235 68.582398 6.371563 33.826868 16.135670 -1.608826 -16.115584 -22.947170 -6.527957 -6.741739 -39.423352 -47.850887 -57.619666 -76.110603 -2.500064 -65.883645 -0.501677 11.099918 12.085925 -22.886528 -14.301371 -39.107583 -20.757162 -5.848654 4.011687 -3.378446 -5.428274 20.849615 -0.512161 -0.680168 -0.036721 -9.571671 -58.980361 56.606918 -4.430295 11.933806 -0.768054 -5.936660 -2.058237 3.854630 -0.001729 0.333410 -0.122460
-36.398160 98.849626 135.820461 91.294902 26.180884 -65.196314 -3.659990 4.210610 10.852717 -1.712861 1.827844 4.807314 -1.712861 1.827844 4.807314 -1.299015 1.357523 3.610337 -11.269628 22.080001 15.754821 -24.087385 9.387530 31.156430 -9.731610 -0.330209 6.063969 -19.587643 -2.343235 39.000043 68.332451 6.101329 33.356818 16.223408 -1.748094 -16.220829 -22.884329 -6.399828 -6.775631 -39.178869 -47.909094 -57.624819 -76.449094 -2.757073 -65.855124 -0.559627 11.151930 12.060898 -21.792470 -14.589050 -39.205720 -20.402001 -4.941171 3.801706 -3.472926 -5.487879 20.900043 -0.426992 -0.726155 -0.209120 -8.845932 -58.123056 56.172782 -4.443078 12.134148 -0.960608 -5.337152 -2.116314 4.298078 0.015037 0.164398 -0.411677
-36.322178 98.858471 135.759552 91.448355 25.440472 -64.418586 -3.725916 4.398060 10.717302 -1.726024 1.884745 4.752421 -1.726024 1.884745 4.752421 -1.309156 1.400251 3.569352 -11.202073 22.063196 15.772721 -23.975988 9.340052 31.178286 -9.662462 -0.635765 6.190226 -19.987420 -2.499265 38.609030 68.248328 5.798854 32.916774 16.346555 -1.831015 -16.424391 -22.804752 -6.439226 -6.765768 -38.607251 -48.008295 -57.886415 -76.839735 -3.101164 -65.869150 -0.542036 11.197944 11.969826 -20.027624 -15.117056 -39.637961 -20.390246 -3.227676 3.344460 -3.272214 -5.726259 21.026383 -0.571679 -0.859909 -0.303338 -7.899853 -56.893836 55.353790 -4.199362 12.176139 -0.983235 -4.567155 -2.075839 4.775620 0.019412 -0.003762 -0.704089
-36.318719 98.870813 135.661341 91.357991 24.548597 -63.542396 -3.766690 4.533372 10.544886 -1.735023 1.926555 4.683966 -1.735023 1.926555 4.683966 -1.316007 1.431733 3.518148 -11.119829 22.024625 15.822645 -23.850327 9.258737 31.258928 -9.563932 -0.962604 6.248342 -20.484809 -2.811236 38.162310 68.400635 5.529709 32.466598 16.451904 -1.891252 -16.534597 -22.681384 -6.553518 -6.722286 -37.871985 -48.122858 -58.227468 -77.226362 -3.590884 -65.845935 -0.513492 11.232246 11.905899 -17.770691 -16.244205 -40.254281 -20.668123 -0.569941 2.726204 -2.895333 -6.160486 21.042927 -0.673066 -0.903818 -0.335852 -6.674641 -55.542187 54.309145 -3.817830 12.089541 -0.956396 -3.709846 -1.947802 5.273920 0.026239 -0.166604 -0.958569
-36.378170 98.866514 135.489404 91.036525 23.559124 -62.590588 -3.796527 4.582608 10.346573 -1.750914 1.945683 4.601118 -1.750914 1.945683 4.601118 -1.327802 1.446193 3.456116 -10.983787 21.968382 15.820869 -23.624784 9.110911 31.240406 -9.417444 -1.465946 6.355981 -21.044519 -3.141330 37.553316 68.772784 5.232363 31.975217 16.467016 -1.966789 -16.488431 -22.570145 -6.723275 -6.656059 -37.231228 -48.139884 -58.436875 -77.649769 -4.328579 -65.634482 -0.468152 11.295291 11.825292 -15.596690 -18.337974 -40.947075 -20.767221 2.996256 2.039335 -2.316284 -6.670385 20.977924 -0.676419 -0.857816 -0.398777 -5.187255 -54.125210 53.069421 -3.180384 11.887125 -0.942375 -2.945379 -1.838050 5.765230 0.022886 -0.263675 -1.109561
-36.464009 98.861876 135.260387 90.564979 22.488393 -61.528171 -3.858707 4.651280 10.142915 -1.791286 1.983139 4.512218 -1.791286 1.983139 4.512218 -1.358066 1.474240 3.389674 -10.804336 21.901888 15.771581 -23.316309 8.915114 31.130291 -9.219601 -2.092516 6.539818 -21.631702 -3.678575 36.870745 69.465020 4.933115 31.369006 16.385956 -1.996690 -16.425705 -22.539808 -6.865494 -6.603704 -36.849098 -48.142653 -58.323719 -78.312244 -5.131935 -65.178646 -0.443320 11.380214 11.690471 -13.984064 -21.439279 -41.520886 -20.179847 7.107576 1.281806 -1.685968 -7.066660 20.796053 -0.583357 -0.788682 -0.487014 -3.383424 -52.773600 51.594214 -2.478453 11.677748 -1.012168 -2.291104 -1.782685 6.258762 0.023721 -0.317243 -1.163249
-36.581541 98.858524 134.934544 90.015541 21.317482 -60.350152 -3.957407 4.772872 9.925476 -1.831337 2.038938 4.413468 -1.831337 2.038938 4.413468 -1.388173 1.516090 3.315898 -10.651240 21.793033 15.694596 -23.059725 8.643892 30.985251 -9.012642 -2.758687 6.829390 -22.439262 -4.477878 36.113672 70.497829 4.346132 30.722619 16.282446 -2.014877 -16.429150 -22.526758 -7.071956 -6.558019 -36.612914 -48.189230 -57.981100 -78.990141 -6.105424 -64.720792 -0.440955 11.438728 11.501468 -12.764820 -25.204296 -41.894546 -19.315820 11.623696 0.389323 -0.934175 -7.408881 20.527963 -0.453892 -0.654937 -0.655733 -1.265040 -51.426877 49.779300 -2.009860 11.457726 -1.045443 -1.485645 -1.800446 6.694865 0.007745 -0.322165 -1.143636
-36.723485 98.835763 134.543253 89.346551 19.999284 -59.027690 -4.074784 4.913024 9.697689 -1.884985 2.108037 4.309248 -1.884985 2.108037 4.309248 -1.428533 1.567849 3.238112 -10.518217 21.636286 15.548329 -22.837033 8.272230 30.731096 -8.713143 -3.485419 7.087799 -23.360503 -5.331234 35.343421 71.773431 3.416440 29.859039 16.219304 -2.120920 -16.562250 -22.491714 -7.283812 -6.572413 -36.444502 -48.332580 -57.567536 -79.751043 -7.011772 -64.190621 -0.395014 11.493053 11.334953 -11.445460 -29.334696 -42.334214 -18.843874 16.565910 -0.509025 -0.041093 -7.663486 20.147090 -0.180139 -0.458337 -0.967917 0.810109 -49.874827 48.026892 -1.333408 11.368166 -1.183872 -0.666937 -1.891835 7.156993 -0.003936 -0.343647 -1.082945
-36.921352 98.795448 134.090966 88.484622 18.648454 -57.658449 -4.265670 5.088179 9.486535 -1.969290 2.182688 4.220385 -1.969290 2.182688 4.220385 -1.491952 1.623531 3.171980 -10.382073 21.470607 15.322051 -22.594321 7.859409 30.334953 -8.268057 -4.472076 7.285139 -24.380651 -6.146134 34.577391 73.294476 2.172010 28.886273 16.103993 -2.309724 -16.550620 -22.344313 -7.581916 -6.616713 -36.242568 -48.525103 -57.235863 -80.576917 -7.825319 -63.590550 -0.367843 11.554358 11.204201 -10.467072 -33.973387 -42.467027 -18.121653 21.723622 -1.591545 0.500713 -7.894673 19.739963 0.187103 -0.177648 -1.370628 2.779892 -48.272415 46.355479 -0.544907 11.318903 -1.414947 0.202800 -2.019527 7.613754 -0.013657 -0.359073 -0.966441
-37.097092 98.770169 133.622646 87.618400 17.229630 -56.336164 -4.473235 5.323246 9.356231 -2.040394 2.244188 4.118042 -2.040394 2.244188 4.118042 -1.545311 1.669506 3.095672 -10.219076 21.321250 15.038643 -22.286780 7.450834 29.826487 -7.903650 -5.462344 7.601900 -25.290987 -7.259514 33.693929 74.910866 0.701718 28.014594 15.912158 -2.534361 -16.496366 -22.311130 -7.819909 -6.613796 -36.045869 -48.737966 -56.926699 -81.320947 -8.591657 -62.859658 -0.318570 11.587740 11.092276 -10.047696 -38.744461 -41.803053 -17.660059 26.893384 -3.223973 0.827986 -7.672291 18.888477 0.394473 0.076323 -1.712604 4.578569 -46.585420 44.881617 0.303412 11.300897 -1.638018 1.026503 -2.128726 8.011738 -0.018163 -0.416939 -0.835605
-37.298588 98.724509 133.105910 86.601048 15.809621 -54.975562 -4.652574 5.472432 9.184025 -2.120462 2.293067 4.019376 -2.120462 2.293067 4.019376 -1.605305 1.705969 3.022132 -10.013269 21.203626 14.735138 -21.889201 7.081385 29.264394 -7.530177 -6.435482 7.913818 -26.208609 -8.624887 32.799780 76.605084 -0.986388 27.351667 15.591740 -2.816695 -16.379744 -22.262600 -8.019678 -6.602204 -35.816573 -49.013522 -56.729841 -81.864264 -9.385376 -62.181257 -0.293158 11.572959 11.010723 -9.789304 -43.636765 -40.901507 -17.852330 32.417104 -5.122315 0.946296 -7.862263 18.066418 0.837097 0.376658 -2.294177 6.410616 -44.945915 43.351418 1.197858 11.291350 -1.873711 1.822037 -2.246480 8.366388 -0.029345 -0.494703 -0.673603
-37.509262 98.680898 132.569129 85.509852 14.445236 -53.608147 -4.861128 5.547201 9.008131 -2.212788 2.337474 3.932550 -2.212788 2.337474 3.932550 -1.674491 1.738981 2.957516 -9.805563 21.072853 14.434758 -21.489964 6.690989 28.708814 -7.126056 -7.329682 8.150125 -26.936269 -9.855584 31.935836 78.444782 -2.768170 26.584373 15.282327 -3.095389 -16.238708 -22.339729 -8.164872 -6.593165 -35.568261 -49.231560 -56.572726 -82.392512 -10.035045 -61.364264 -0.312144 11.545165 11.008842 -9.683703 -48.181031 -39.709429 -18.321012 38.106717 -7.064227 0.702854 -8.355048 17.329818 1.149550 0.388290 -2.919980 8.309716 -43.542455 41.712605 1.983107 11.387010 -2.090012 2.564930 -2.358107 8.706002 -0.081807 -0.640094 -0.518485
